<mxfile host="app.diagrams.net" agent="Mozilla/5.0 (X11; Linux x86_64; rv:142.0) Gecko/20100101 Firefox/142.0" version="28.1.2">
  <diagram name="Page-1" id="k1lwre1zonmqFQUN0qIN">
    <mxGraphModel dx="599" dy="648" grid="1" gridSize="10" guides="1" tooltips="1" connect="1" arrows="1" fold="1" page="1" pageScale="1" pageWidth="850" pageHeight="1100" math="0" shadow="0">
      <root>
        <mxCell id="0" />
        <mxCell id="1" parent="0" />
        <mxCell id="bmuu0SftYx7GVbJ8kDr3-1" value="CoinType" style="swimlane;fontStyle=0;childLayout=stackLayout;horizontal=1;startSize=60;fillColor=none;horizontalStack=0;resizeParent=1;resizeParentMax=0;resizeLast=0;collapsible=1;marginBottom=0;whiteSpace=wrap;html=1;" vertex="1" parent="1">
          <mxGeometry x="50" y="180" width="190" height="180" as="geometry" />
        </mxCell>
        <mxCell id="bmuu0SftYx7GVbJ8kDr3-12" value="&lt;div&gt;- value:&lt;/div&gt;&lt;div&gt;&lt;br&gt;&lt;/div&gt;" style="text;strokeColor=none;fillColor=none;align=left;verticalAlign=top;spacingLeft=4;spacingRight=4;overflow=hidden;rotatable=0;points=[[0,0.5],[1,0.5]];portConstraint=eastwest;whiteSpace=wrap;html=1;" vertex="1" parent="bmuu0SftYx7GVbJ8kDr3-1">
          <mxGeometry y="60" width="190" height="26" as="geometry" />
        </mxCell>
        <mxCell id="bmuu0SftYx7GVbJ8kDr3-17" value="- color:" style="text;strokeColor=none;fillColor=none;align=left;verticalAlign=top;spacingLeft=4;spacingRight=4;overflow=hidden;rotatable=0;points=[[0,0.5],[1,0.5]];portConstraint=eastwest;whiteSpace=wrap;html=1;" vertex="1" parent="bmuu0SftYx7GVbJ8kDr3-1">
          <mxGeometry y="86" width="190" height="26" as="geometry" />
        </mxCell>
        <mxCell id="bmuu0SftYx7GVbJ8kDr3-18" value="" style="line;strokeWidth=1;fillColor=none;align=left;verticalAlign=middle;spacingTop=-1;spacingLeft=3;spacingRight=3;rotatable=0;labelPosition=right;points=[];portConstraint=eastwest;strokeColor=inherit;" vertex="1" parent="bmuu0SftYx7GVbJ8kDr3-1">
          <mxGeometry y="112" width="190" height="8" as="geometry" />
        </mxCell>
        <mxCell id="bmuu0SftYx7GVbJ8kDr3-2" value="+ __init__(value, color)" style="text;strokeColor=none;fillColor=none;align=left;verticalAlign=top;spacingLeft=4;spacingRight=4;overflow=hidden;rotatable=0;points=[[0,0.5],[1,0.5]];portConstraint=eastwest;whiteSpace=wrap;html=1;" vertex="1" parent="bmuu0SftYx7GVbJ8kDr3-1">
          <mxGeometry y="120" width="190" height="30" as="geometry" />
        </mxCell>
        <mxCell id="bmuu0SftYx7GVbJ8kDr3-3" value="+ show(x, y)" style="text;strokeColor=none;fillColor=none;align=left;verticalAlign=top;spacingLeft=4;spacingRight=4;overflow=hidden;rotatable=0;points=[[0,0.5],[1,0.5]];portConstraint=eastwest;whiteSpace=wrap;html=1;" vertex="1" parent="bmuu0SftYx7GVbJ8kDr3-1">
          <mxGeometry y="150" width="190" height="30" as="geometry" />
        </mxCell>
        <mxCell id="bmuu0SftYx7GVbJ8kDr3-19" value="Coin" style="swimlane;fontStyle=0;childLayout=stackLayout;horizontal=1;startSize=60;fillColor=none;horizontalStack=0;resizeParent=1;resizeParentMax=0;resizeLast=0;collapsible=1;marginBottom=0;whiteSpace=wrap;html=1;" vertex="1" parent="1">
          <mxGeometry x="50" y="410" width="190" height="206" as="geometry" />
        </mxCell>
        <mxCell id="bmuu0SftYx7GVbJ8kDr3-20" value="&lt;div&gt;- x:&lt;/div&gt;&lt;div&gt;&lt;br&gt;&lt;/div&gt;" style="text;strokeColor=none;fillColor=none;align=left;verticalAlign=top;spacingLeft=4;spacingRight=4;overflow=hidden;rotatable=0;points=[[0,0.5],[1,0.5]];portConstraint=eastwest;whiteSpace=wrap;html=1;" vertex="1" parent="bmuu0SftYx7GVbJ8kDr3-19">
          <mxGeometry y="60" width="190" height="26" as="geometry" />
        </mxCell>
        <mxCell id="bmuu0SftYx7GVbJ8kDr3-21" value="- y:&amp;nbsp;" style="text;strokeColor=none;fillColor=none;align=left;verticalAlign=top;spacingLeft=4;spacingRight=4;overflow=hidden;rotatable=0;points=[[0,0.5],[1,0.5]];portConstraint=eastwest;whiteSpace=wrap;html=1;" vertex="1" parent="bmuu0SftYx7GVbJ8kDr3-19">
          <mxGeometry y="86" width="190" height="26" as="geometry" />
        </mxCell>
        <mxCell id="bmuu0SftYx7GVbJ8kDr3-25" value="&lt;div&gt;- coin_type: CoinType&lt;/div&gt;" style="text;strokeColor=none;fillColor=none;align=left;verticalAlign=top;spacingLeft=4;spacingRight=4;overflow=hidden;rotatable=0;points=[[0,0.5],[1,0.5]];portConstraint=eastwest;whiteSpace=wrap;html=1;" vertex="1" parent="bmuu0SftYx7GVbJ8kDr3-19">
          <mxGeometry y="112" width="190" height="26" as="geometry" />
        </mxCell>
        <mxCell id="bmuu0SftYx7GVbJ8kDr3-22" value="" style="line;strokeWidth=1;fillColor=none;align=left;verticalAlign=middle;spacingTop=-1;spacingLeft=3;spacingRight=3;rotatable=0;labelPosition=right;points=[];portConstraint=eastwest;strokeColor=inherit;" vertex="1" parent="bmuu0SftYx7GVbJ8kDr3-19">
          <mxGeometry y="138" width="190" height="8" as="geometry" />
        </mxCell>
        <mxCell id="bmuu0SftYx7GVbJ8kDr3-23" value="+ __init__(x, y, value, color)" style="text;strokeColor=none;fillColor=none;align=left;verticalAlign=top;spacingLeft=4;spacingRight=4;overflow=hidden;rotatable=0;points=[[0,0.5],[1,0.5]];portConstraint=eastwest;whiteSpace=wrap;html=1;" vertex="1" parent="bmuu0SftYx7GVbJ8kDr3-19">
          <mxGeometry y="146" width="190" height="30" as="geometry" />
        </mxCell>
        <mxCell id="bmuu0SftYx7GVbJ8kDr3-24" value="+ show()" style="text;strokeColor=none;fillColor=none;align=left;verticalAlign=top;spacingLeft=4;spacingRight=4;overflow=hidden;rotatable=0;points=[[0,0.5],[1,0.5]];portConstraint=eastwest;whiteSpace=wrap;html=1;" vertex="1" parent="bmuu0SftYx7GVbJ8kDr3-19">
          <mxGeometry y="176" width="190" height="30" as="geometry" />
        </mxCell>
        <mxCell id="bmuu0SftYx7GVbJ8kDr3-26" value="" style="endArrow=open;endFill=1;endSize=12;html=1;rounded=0;entryX=0.469;entryY=1;entryDx=0;entryDy=0;entryPerimeter=0;" edge="1" parent="1" target="bmuu0SftYx7GVbJ8kDr3-3">
          <mxGeometry width="160" relative="1" as="geometry">
            <mxPoint x="139" y="410" as="sourcePoint" />
            <mxPoint x="300" y="490" as="targetPoint" />
          </mxGeometry>
        </mxCell>
        <mxCell id="bmuu0SftYx7GVbJ8kDr3-27" value="легковес" style="text;html=1;align=center;verticalAlign=middle;resizable=0;points=[];autosize=1;strokeColor=none;fillColor=none;" vertex="1" parent="1">
          <mxGeometry x="95" y="148" width="70" height="30" as="geometry" />
        </mxCell>
        <mxCell id="bmuu0SftYx7GVbJ8kDr3-28" value="контекст" style="text;html=1;align=center;verticalAlign=middle;resizable=0;points=[];autosize=1;strokeColor=none;fillColor=none;" vertex="1" parent="1">
          <mxGeometry x="105" y="618" width="70" height="30" as="geometry" />
        </mxCell>
      </root>
    </mxGraphModel>
  </diagram>
</mxfile>
